<svg xmlns="http://www.w3.org/2000/svg" width="228" height="29" viewBox="0 0 228 29" fill="none">
<g clip-path="url(#clip0_2170_4177)">
<path d="M70.0633 23.4486C72.5367 23.4486 74.6817 22.507 76.3233 21.0307C77.9722 19.5468 79.125 17.5281 79.643 15.3512L79.7013 15.1101H76.4109L76.3671 15.2457C75.9439 16.5865 75.1997 17.8519 74.1418 18.7709C73.0912 19.6899 71.7341 20.2774 70.056 20.2774C68.1664 20.2774 66.3789 19.4112 65.0583 17.9047C63.7377 16.4057 62.8914 14.2665 62.8914 11.7281C62.8914 9.18961 63.7377 7.05039 65.0583 5.55143C66.3789 4.05247 68.1664 3.1787 70.056 3.1787C71.9457 3.1787 73.0036 3.76623 74.0396 4.69273C75.0684 5.61922 75.8053 6.88468 76.2139 8.24805L76.2576 8.38364H79.5481L79.4898 8.1426C78.9863 5.93558 77.8409 3.90182 76.2139 2.41792C74.5796 0.934026 72.471 0 70.0633 0C67.6556 0 64.6716 1.26545 62.7746 3.35948C60.8777 5.45351 59.6738 8.38364 59.6738 11.7205C59.6738 15.0574 60.8777 17.9875 62.7746 20.0816C64.6716 22.1756 67.2763 23.441 70.0633 23.441V23.4486Z" fill="white"/>
<path d="M96.6865 27.3654C97.241 26.6347 97.7736 25.6103 98.3135 24.2168L105.091 6.64355H101.925L101.874 6.77161L97.5401 18.5449L93.0677 6.64355H88.9746C87.9532 6.64355 87.0485 7.03524 86.3335 7.53992C85.7279 7.96174 85.261 8.45135 84.9545 8.87317V8.66226H84.9399L84.349 6.65109H82.0361V23.102H85.0786V14.2137C85.0786 12.7976 85.4871 11.6978 86.173 10.9521C86.8588 10.1989 87.8219 9.79213 88.9673 9.79213H91.0029L96.0007 22.522L95.4097 24.0737C95.1252 24.8345 94.7968 25.3241 94.4393 25.6178C94.0818 25.9116 93.6732 26.0246 93.1771 26.0246C92.8269 26.0246 92.5497 25.9643 92.2213 25.8438L91.966 25.7459V28.661L92.0973 28.7062C92.4694 28.8342 92.9655 29.0075 93.6149 29.0075C94.2642 29.0075 94.4977 28.9472 94.9136 28.789C95.541 28.5555 96.1247 28.1036 96.6792 27.3729" fill="white"/>
<path d="M109.922 14.8545C109.922 13.1747 110.447 11.7812 111.272 10.802C112.096 9.8303 113.22 9.2729 114.423 9.2729C115.627 9.2729 116.729 9.82277 117.553 10.802C118.378 11.7737 118.903 13.1747 118.903 14.8545C118.903 16.5342 118.378 17.9578 117.553 18.9371C116.729 19.9163 115.62 20.4661 114.423 20.4737C113.212 20.4737 112.096 19.9238 111.272 18.9371C110.447 17.9578 109.922 16.5568 109.922 14.8545ZM109.914 21.3098C110.024 21.4378 110.155 21.5734 110.316 21.7241C110.732 22.1082 111.315 22.53 112.038 22.869C112.76 23.2004 113.614 23.449 114.577 23.449C116.576 23.449 118.422 22.5526 119.764 21.0311C121.107 19.5095 121.938 17.3628 121.938 14.8545C121.938 12.3461 121.107 10.2145 119.764 8.6929C118.422 7.17887 116.576 6.29004 114.577 6.29004C112.578 6.29004 112.147 6.73445 111.308 7.26173C110.885 7.52536 110.527 7.80406 110.25 8.0677C110.046 8.25601 109.878 8.42926 109.754 8.57991L109.185 6.64406H106.872V28.8422H109.914V21.3098Z" fill="white"/>
<path d="M125.083 17.8821C125.083 19.6297 125.594 21.0232 126.447 21.9798C127.301 22.9364 128.505 23.4486 129.847 23.4411C130.613 23.4411 131.139 23.2754 131.518 23.1398L131.649 23.0946V20.1268L131.379 20.2548C131.066 20.398 130.759 20.4582 130.38 20.4582C130 20.4582 129.723 20.4055 129.453 20.3C129.045 20.1419 128.724 19.8707 128.49 19.4639C128.264 19.0572 128.125 18.4998 128.125 17.7842V9.55122H131.649V6.63615H128.125V2.41797H125.484V5.00914C125.484 5.3029 125.448 5.55147 125.368 5.76992C125.258 6.08628 125.076 6.31979 124.813 6.47797C124.558 6.63615 124.215 6.72654 123.784 6.72654H122.42V9.55122H125.076V17.8746L125.083 17.8821Z" fill="white"/>
<path d="M143.68 18.9295C142.834 19.9087 141.688 20.4661 140.426 20.4661C139.164 20.4661 138.004 19.9087 137.158 18.9295C136.304 17.9503 135.764 16.5493 135.764 14.8545C135.764 13.1596 136.304 11.7812 137.158 10.802C138.011 9.8303 139.164 9.2729 140.426 9.2729C141.688 9.2729 142.834 9.8303 143.68 10.802C144.519 11.7737 145.059 13.1747 145.059 14.8545C145.059 16.5342 144.527 17.9578 143.68 18.9295ZM145.847 8.75316C144.446 7.21653 142.52 6.29004 140.426 6.29004C138.318 6.29004 136.384 7.21653 134.991 8.75316C133.59 10.2898 132.722 12.429 132.722 14.8545C132.722 17.2799 133.59 19.4493 134.991 20.9859C136.392 22.5225 138.318 23.449 140.426 23.449C142.535 23.449 144.454 22.5225 145.847 20.9859C147.248 19.4493 148.124 17.3025 148.124 14.8545C148.124 12.4064 147.248 10.2822 145.847 8.75316Z" fill="white"/>
<path d="M154.828 14.621L158.228 5.08488L161.628 14.621H154.821H154.828ZM156.798 0.354492L148.495 23.095H151.815L153.697 17.7319H162.766L164.648 23.095H168.085L159.782 0.354492H156.798Z" fill="white"/>
<path d="M179.613 16.0965C179.613 17.4599 179.212 18.5446 178.526 19.2978C177.847 20.0435 176.884 20.4654 175.724 20.4654C174.564 20.4654 173.688 20.0511 173.017 19.2978C172.346 18.5521 171.93 17.4599 171.93 16.0965V6.64327H168.888V16.1944C168.888 18.3713 169.559 20.1866 170.697 21.4596C171.835 22.7326 173.448 23.4482 175.286 23.4482C176.468 23.4482 177.475 23.0716 178.263 22.5895C178.956 22.1602 179.474 21.6404 179.803 21.1809L180.335 23.0942H182.684V6.63574H179.613V16.089V16.0965Z" fill="white"/>
<path d="M190.572 2.42522H187.931V5.01639C187.931 5.31016 187.887 5.55873 187.814 5.77717C187.704 6.09353 187.522 6.32704 187.259 6.48522C186.997 6.6434 186.661 6.73379 186.231 6.73379H184.866V9.55847H187.522V17.8818C187.522 19.6294 188.033 21.0229 188.886 21.9795C189.747 22.9361 190.944 23.4483 192.286 23.4408C193.052 23.4408 193.578 23.2751 193.957 23.1395L194.088 23.0943V20.119L193.818 20.247C193.505 20.3902 193.198 20.4504 192.819 20.4504C192.439 20.4504 192.162 20.3977 191.892 20.2922C191.484 20.1341 191.163 19.8629 190.936 19.4561C190.71 19.0494 190.572 18.492 190.572 17.7764V9.5434H194.096V6.62834H190.572V2.41016V2.42522Z" fill="white"/>
<path d="M206.12 18.9295C205.273 19.9087 204.121 20.4661 202.866 20.4661C201.611 20.4661 200.451 19.9087 199.597 18.9295C198.743 17.9503 198.204 16.5493 198.204 14.8545C198.204 13.1596 198.743 11.7812 199.597 10.802C200.451 9.8303 201.611 9.2729 202.866 9.2729C204.121 9.2729 205.273 9.8303 206.12 10.802C206.959 11.7737 207.499 13.1747 207.499 14.8545C207.499 16.5342 206.966 17.9578 206.12 18.9295ZM202.866 6.29004C200.757 6.29004 198.824 7.21653 197.43 8.75316C196.037 10.2898 195.161 12.429 195.161 14.8545C195.161 17.2799 196.029 19.4493 197.43 20.9859C198.831 22.5225 200.757 23.449 202.866 23.449C204.974 23.449 206.893 22.5225 208.294 20.9859C209.695 19.4493 210.57 17.3025 210.57 14.8545C210.57 12.4064 209.695 10.2822 208.294 8.75316C206.893 7.21653 204.96 6.29004 202.866 6.29004Z" fill="white"/>
<path d="M221.449 14.5529C220.164 13.8373 218.618 13.4607 217.407 12.9861C216.801 12.7526 216.29 12.489 215.933 12.1726C215.758 12.0144 215.619 11.8412 215.532 11.6453C215.437 11.4495 215.393 11.2386 215.393 10.99C215.393 10.4703 215.597 10.0183 216.006 9.67184C216.414 9.33288 217.042 9.1069 217.888 9.1069C218.734 9.1069 219.391 9.33288 219.836 9.73963C220.281 10.1389 220.551 10.7264 220.639 11.4872L220.661 11.6604H223.659L223.645 11.4495C223.564 10.0259 222.959 8.73028 221.959 7.79625C220.952 6.86223 219.559 6.28223 217.888 6.28223C216.217 6.28223 214.809 6.81703 213.846 7.68327C212.883 8.5495 212.343 9.76223 212.343 11.0729C212.343 12.3835 212.482 12.4137 212.73 12.9409C213.16 13.8599 213.904 14.4851 214.765 14.9521C216.05 15.6526 217.596 16.0142 218.8 16.4963C219.406 16.7373 219.916 17.0009 220.267 17.3324C220.442 17.4981 220.58 17.6789 220.668 17.8822C220.763 18.0856 220.814 18.3116 220.814 18.5827C220.814 19.1477 220.595 19.6448 220.15 20.0139C219.705 20.383 219.026 20.624 218.1 20.624C217.173 20.624 216.407 20.3529 215.889 19.9085C215.371 19.464 215.065 18.8389 214.984 18.0856L214.97 17.9048H211.935L211.949 18.1157C212.044 19.5394 212.686 20.8726 213.759 21.8518C214.824 22.8235 216.319 23.4412 218.107 23.4412C219.894 23.4412 221.361 22.9139 222.346 22.0176C223.338 21.1287 223.864 19.8783 223.864 18.4848C223.864 17.7542 223.725 17.129 223.477 16.5942C223.046 15.6601 222.302 15.0199 221.441 14.5453" fill="white"/>
<path d="M38.8805 17.3325H17.2041V23.5016H44.8559V8.02235C44.8559 0.896637 36.5093 -2.67375 31.6283 2.36547L22.3259 11.9769L26.5503 16.3382L35.8308 6.74936C36.9544 5.58936 38.8805 6.4104 38.8805 8.05248V17.34V17.3325Z" fill="white"/>
<path d="M5.97542 6.22211H27.6518V0.0605469H0V15.5398C0 22.6655 8.34662 26.2359 13.2276 21.1967L22.209 11.9242L17.9846 7.56288L9.02515 16.8128C7.90157 17.9728 5.97542 17.1517 5.97542 15.5096V6.22211Z" fill="white"/>
</g>
<defs>
<clipPath id="clip0_2170_4177">
<rect width="228" height="29" fill="white"/>
</clipPath>
</defs>
</svg>
